<mxfile host="Electron" modified="2023-07-18T16:25:32.733Z" agent="Mozilla/5.0 (Windows NT 10.0; Win64; x64) AppleWebKit/537.36 (KHTML, like Gecko) draw.io/21.6.1 Chrome/112.0.5615.204 Electron/24.6.1 Safari/537.36" etag="FVxupBnorB4Tjop6bGzE" version="21.6.1" type="device">
  <diagram name="Strona-1" id="VcgliH1jRMGgWnunI4cL">
    <mxGraphModel dx="1040" dy="1201" grid="1" gridSize="10" guides="1" tooltips="1" connect="1" arrows="1" fold="1" page="1" pageScale="1" pageWidth="827" pageHeight="1169" math="0" shadow="0">
      <root>
        <mxCell id="0" />
        <mxCell id="1" parent="0" />
        <mxCell id="dydX-MhsVltvHzk1WAUs-6" value="" style="rounded=0;whiteSpace=wrap;html=1;strokeColor=#50A294;strokeWidth=2;fillColor=#E6E6E6;fontFamily=Verdana;fontSize=12;fontColor=#000000;perimeterSpacing=0;imageHeight=24;arcSize=9;" vertex="1" parent="1">
          <mxGeometry x="110" y="450" width="120" height="85" as="geometry" />
        </mxCell>
        <mxCell id="dydX-MhsVltvHzk1WAUs-8" style="edgeStyle=orthogonalEdgeStyle;rounded=0;orthogonalLoop=1;jettySize=auto;html=1;exitX=0.5;exitY=1;exitDx=0;exitDy=0;entryX=0.5;entryY=0;entryDx=0;entryDy=0;strokeColor=#50A294;strokeWidth=2;" edge="1" parent="1" source="dydX-MhsVltvHzk1WAUs-5" target="dydX-MhsVltvHzk1WAUs-6">
          <mxGeometry relative="1" as="geometry" />
        </mxCell>
        <mxCell id="dydX-MhsVltvHzk1WAUs-5" value="" style="rounded=0;whiteSpace=wrap;html=1;strokeColor=#50A294;strokeWidth=2;fillColor=#E6E6E6;fontFamily=Verdana;fontSize=12;fontColor=#000000;perimeterSpacing=0;imageHeight=24;arcSize=9;" vertex="1" parent="1">
          <mxGeometry x="110" y="305" width="120" height="85" as="geometry" />
        </mxCell>
        <mxCell id="8pFqcf_Isv4RiwaipJfo-26" value="" style="rounded=0;whiteSpace=wrap;html=1;fontColor=#333333;fillColor=none;strokeColor=#50A294;strokeWidth=2;" parent="1" vertex="1">
          <mxGeometry x="190" y="190" width="185" height="100" as="geometry" />
        </mxCell>
        <mxCell id="8pFqcf_Isv4RiwaipJfo-1" value="" style="dashed=0;outlineConnect=0;html=1;align=center;labelPosition=center;verticalLabelPosition=bottom;verticalAlign=top;shape=mxgraph.webicons.facebook;fillColor=#6294E4;gradientColor=#1A2665;fontColor=#333333;" parent="1" vertex="1">
          <mxGeometry x="145" y="322.5" width="50" height="50" as="geometry" />
        </mxCell>
        <mxCell id="8pFqcf_Isv4RiwaipJfo-2" value="" style="dashed=0;outlineConnect=0;html=1;align=center;labelPosition=center;verticalLabelPosition=bottom;verticalAlign=top;shape=mxgraph.weblogos.gmail;fontColor=#333333;" parent="1" vertex="1">
          <mxGeometry x="141.88" y="473.75" width="56.25" height="37.5" as="geometry" />
        </mxCell>
        <mxCell id="8pFqcf_Isv4RiwaipJfo-5" value="" style="rounded=0;whiteSpace=wrap;html=1;fontColor=#333333;fillColor=none;strokeColor=#50A294;strokeWidth=2;" parent="1" vertex="1">
          <mxGeometry x="260" y="225" width="100" height="20" as="geometry" />
        </mxCell>
        <mxCell id="8pFqcf_Isv4RiwaipJfo-7" value="" style="rounded=0;whiteSpace=wrap;html=1;fontColor=#333333;fillColor=none;strokeColor=#50A294;strokeWidth=2;" parent="1" vertex="1">
          <mxGeometry x="260" y="255" width="100" height="20" as="geometry" />
        </mxCell>
        <mxCell id="8pFqcf_Isv4RiwaipJfo-8" value="email" style="text;html=1;strokeColor=none;fillColor=none;align=left;verticalAlign=middle;whiteSpace=wrap;rounded=0;fontColor=#333333;fontFamily=Tahoma;fontStyle=1" parent="1" vertex="1">
          <mxGeometry x="195" y="220" width="60" height="30" as="geometry" />
        </mxCell>
        <mxCell id="8pFqcf_Isv4RiwaipJfo-9" value="password" style="text;html=1;strokeColor=none;fillColor=none;align=left;verticalAlign=middle;whiteSpace=wrap;rounded=0;fontColor=#333333;fontFamily=Tahoma;fontStyle=1" parent="1" vertex="1">
          <mxGeometry x="195" y="250" width="60" height="30" as="geometry" />
        </mxCell>
        <mxCell id="8pFqcf_Isv4RiwaipJfo-24" value="Enter gmail credentials" style="text;html=1;strokeColor=none;fillColor=none;align=left;verticalAlign=middle;whiteSpace=wrap;rounded=0;fontColor=#333333;fontFamily=Tahoma;fontStyle=1" parent="1" vertex="1">
          <mxGeometry x="195" y="190" width="175" height="30" as="geometry" />
        </mxCell>
        <mxCell id="dydX-MhsVltvHzk1WAUs-7" style="edgeStyle=orthogonalEdgeStyle;rounded=0;orthogonalLoop=1;jettySize=auto;html=1;exitX=0.5;exitY=1;exitDx=0;exitDy=0;strokeColor=#50A294;strokeWidth=2;" edge="1" parent="1" source="dydX-MhsVltvHzk1WAUs-1" target="dydX-MhsVltvHzk1WAUs-5">
          <mxGeometry relative="1" as="geometry" />
        </mxCell>
        <mxCell id="dydX-MhsVltvHzk1WAUs-1" value="" style="rounded=0;whiteSpace=wrap;html=1;strokeColor=#50A294;strokeWidth=2;fillColor=#E6E6E6;fontFamily=Verdana;fontSize=12;fontColor=#000000;perimeterSpacing=0;imageHeight=24;arcSize=9;" vertex="1" parent="1">
          <mxGeometry x="110" y="90" width="120" height="85" as="geometry" />
        </mxCell>
        <mxCell id="dydX-MhsVltvHzk1WAUs-2" value="" style="verticalLabelPosition=bottom;verticalAlign=top;strokeColor=none;fillColor=#50A294;shape=mxgraph.azure.user;dashed=1;fontSize=12;fontColor=#004C99;labelBackgroundColor=none;" vertex="1" parent="1">
          <mxGeometry x="146.25" y="107.5" width="47.5" height="50" as="geometry" />
        </mxCell>
        <mxCell id="dydX-MhsVltvHzk1WAUs-31" style="edgeStyle=orthogonalEdgeStyle;rounded=0;orthogonalLoop=1;jettySize=auto;html=1;exitX=1;exitY=0.5;exitDx=0;exitDy=0;entryX=1;entryY=0.5;entryDx=0;entryDy=0;startArrow=classic;startFill=1;strokeColor=#50A294;strokeWidth=2;" edge="1" parent="1" source="dydX-MhsVltvHzk1WAUs-9" target="dydX-MhsVltvHzk1WAUs-21">
          <mxGeometry relative="1" as="geometry" />
        </mxCell>
        <mxCell id="dydX-MhsVltvHzk1WAUs-9" value="" style="rounded=0;whiteSpace=wrap;html=1;strokeColor=#50A294;strokeWidth=2;fillColor=#E6E6E6;fontFamily=Verdana;fontSize=12;fontColor=#000000;perimeterSpacing=0;imageHeight=24;arcSize=9;" vertex="1" parent="1">
          <mxGeometry x="560" y="450" width="120" height="85" as="geometry" />
        </mxCell>
        <mxCell id="dydX-MhsVltvHzk1WAUs-10" style="edgeStyle=orthogonalEdgeStyle;rounded=0;orthogonalLoop=1;jettySize=auto;html=1;exitX=0.5;exitY=1;exitDx=0;exitDy=0;entryX=0.5;entryY=0;entryDx=0;entryDy=0;startArrow=classic;startFill=1;strokeColor=#50A294;strokeWidth=2;" edge="1" parent="1" source="dydX-MhsVltvHzk1WAUs-11" target="dydX-MhsVltvHzk1WAUs-9">
          <mxGeometry relative="1" as="geometry" />
        </mxCell>
        <mxCell id="dydX-MhsVltvHzk1WAUs-11" value="" style="rounded=0;whiteSpace=wrap;html=1;strokeColor=#50A294;strokeWidth=2;fillColor=#E6E6E6;fontFamily=Verdana;fontSize=12;fontColor=#000000;perimeterSpacing=0;imageHeight=24;arcSize=9;" vertex="1" parent="1">
          <mxGeometry x="560" y="305" width="120" height="85" as="geometry" />
        </mxCell>
        <mxCell id="dydX-MhsVltvHzk1WAUs-12" value="" style="rounded=0;whiteSpace=wrap;html=1;fontColor=#333333;fillColor=none;strokeColor=#50A294;strokeWidth=2;" vertex="1" parent="1">
          <mxGeometry x="712" y="225" width="185" height="100" as="geometry" />
        </mxCell>
        <mxCell id="dydX-MhsVltvHzk1WAUs-13" value="" style="dashed=0;outlineConnect=0;html=1;align=center;labelPosition=center;verticalLabelPosition=bottom;verticalAlign=top;shape=mxgraph.webicons.facebook;fillColor=#6294E4;gradientColor=#1A2665;fontColor=#333333;" vertex="1" parent="1">
          <mxGeometry x="595" y="322.5" width="50" height="50" as="geometry" />
        </mxCell>
        <mxCell id="dydX-MhsVltvHzk1WAUs-14" value="" style="dashed=0;outlineConnect=0;html=1;align=center;labelPosition=center;verticalLabelPosition=bottom;verticalAlign=top;shape=mxgraph.weblogos.gmail;fontColor=#333333;" vertex="1" parent="1">
          <mxGeometry x="591.88" y="473.75" width="56.25" height="37.5" as="geometry" />
        </mxCell>
        <mxCell id="dydX-MhsVltvHzk1WAUs-15" value="" style="rounded=0;whiteSpace=wrap;html=1;fontColor=#333333;fillColor=none;strokeColor=#50A294;strokeWidth=2;" vertex="1" parent="1">
          <mxGeometry x="782" y="260" width="100" height="20" as="geometry" />
        </mxCell>
        <mxCell id="dydX-MhsVltvHzk1WAUs-16" value="" style="rounded=0;whiteSpace=wrap;html=1;fontColor=#333333;fillColor=none;strokeColor=#50A294;strokeWidth=2;" vertex="1" parent="1">
          <mxGeometry x="782" y="290" width="100" height="20" as="geometry" />
        </mxCell>
        <mxCell id="dydX-MhsVltvHzk1WAUs-17" value="email" style="text;html=1;strokeColor=none;fillColor=none;align=left;verticalAlign=middle;whiteSpace=wrap;rounded=0;fontColor=#333333;fontFamily=Tahoma;fontStyle=1" vertex="1" parent="1">
          <mxGeometry x="717" y="255" width="60" height="30" as="geometry" />
        </mxCell>
        <mxCell id="dydX-MhsVltvHzk1WAUs-18" value="password" style="text;html=1;strokeColor=none;fillColor=none;align=left;verticalAlign=middle;whiteSpace=wrap;rounded=0;fontColor=#333333;fontFamily=Tahoma;fontStyle=1" vertex="1" parent="1">
          <mxGeometry x="717" y="285" width="60" height="30" as="geometry" />
        </mxCell>
        <mxCell id="dydX-MhsVltvHzk1WAUs-19" value="Sign in to gmail" style="text;html=1;strokeColor=none;fillColor=none;align=left;verticalAlign=middle;whiteSpace=wrap;rounded=0;fontColor=#333333;fontFamily=Tahoma;fontStyle=1" vertex="1" parent="1">
          <mxGeometry x="717" y="225" width="175" height="30" as="geometry" />
        </mxCell>
        <mxCell id="dydX-MhsVltvHzk1WAUs-20" style="edgeStyle=orthogonalEdgeStyle;rounded=0;orthogonalLoop=1;jettySize=auto;html=1;exitX=0.5;exitY=1;exitDx=0;exitDy=0;strokeColor=#50A294;strokeWidth=2;" edge="1" parent="1" source="dydX-MhsVltvHzk1WAUs-21" target="dydX-MhsVltvHzk1WAUs-11">
          <mxGeometry relative="1" as="geometry" />
        </mxCell>
        <mxCell id="dydX-MhsVltvHzk1WAUs-21" value="" style="rounded=0;whiteSpace=wrap;html=1;strokeColor=#50A294;strokeWidth=2;fillColor=#E6E6E6;fontFamily=Verdana;fontSize=12;fontColor=#000000;perimeterSpacing=0;imageHeight=24;arcSize=9;" vertex="1" parent="1">
          <mxGeometry x="560" y="90" width="120" height="85" as="geometry" />
        </mxCell>
        <mxCell id="dydX-MhsVltvHzk1WAUs-22" value="" style="verticalLabelPosition=bottom;verticalAlign=top;strokeColor=none;fillColor=#50A294;shape=mxgraph.azure.user;dashed=1;fontSize=12;fontColor=#004C99;labelBackgroundColor=none;" vertex="1" parent="1">
          <mxGeometry x="596.25" y="107.5" width="47.5" height="50" as="geometry" />
        </mxCell>
        <mxCell id="dydX-MhsVltvHzk1WAUs-23" value="" style="rounded=0;whiteSpace=wrap;html=1;fontColor=#333333;fillColor=none;strokeColor=#50A294;strokeWidth=2;" vertex="1" parent="1">
          <mxGeometry x="712" y="325" width="185" height="100" as="geometry" />
        </mxCell>
        <mxCell id="dydX-MhsVltvHzk1WAUs-24" value="Allow facebook sending emails on your behalf?" style="text;html=1;strokeColor=none;fillColor=none;align=left;verticalAlign=middle;whiteSpace=wrap;rounded=0;fontColor=#333333;fontFamily=Tahoma;fontStyle=1" vertex="1" parent="1">
          <mxGeometry x="717" y="335" width="175" height="30" as="geometry" />
        </mxCell>
        <mxCell id="dydX-MhsVltvHzk1WAUs-25" value="&lt;font face=&quot;Tahoma&quot;&gt;&lt;b style=&quot;&quot;&gt;Allow&lt;/b&gt;&lt;/font&gt;" style="rounded=0;whiteSpace=wrap;html=1;fontColor=#333333;fillColor=#50A294;strokeColor=#50A294;strokeWidth=2;labelBackgroundColor=none;" vertex="1" parent="1">
          <mxGeometry x="722" y="385" width="75" height="20" as="geometry" />
        </mxCell>
        <mxCell id="dydX-MhsVltvHzk1WAUs-27" value="&lt;font face=&quot;Tahoma&quot;&gt;&lt;b style=&quot;&quot;&gt;Cancel&lt;/b&gt;&lt;/font&gt;" style="rounded=0;whiteSpace=wrap;html=1;fontColor=#333333;fillColor=#50A294;strokeColor=#50A294;strokeWidth=2;labelBackgroundColor=none;" vertex="1" parent="1">
          <mxGeometry x="812" y="385" width="75" height="20" as="geometry" />
        </mxCell>
        <mxCell id="dydX-MhsVltvHzk1WAUs-34" value="" style="shape=flexArrow;endArrow=classic;html=1;rounded=0;width=14;endSize=7.67;fillColor=#50A294;strokeColor=none;" edge="1" parent="1">
          <mxGeometry width="50" height="50" relative="1" as="geometry">
            <mxPoint x="430" y="299.5" as="sourcePoint" />
            <mxPoint x="480" y="299.5" as="targetPoint" />
          </mxGeometry>
        </mxCell>
      </root>
    </mxGraphModel>
  </diagram>
</mxfile>
